<?xml version="1.0" standalone="no"?>
<!DOCTYPE svg PUBLIC "-//W3C//DTD SVG 20010904//EN"
 "http://www.w3.org/TR/2001/REC-SVG-20010904/DTD/svg10.dtd">
<svg version="1.0" xmlns="http://www.w3.org/2000/svg"
 width="192.000000pt" height="192.000000pt" viewBox="0 0 192.000000 192.000000"
 preserveAspectRatio="xMidYMid meet">
<metadata>
Created by potrace 1.11, written by Peter Selinger 2001-2013
</metadata>
<g transform="translate(0.000000,192.000000) scale(0.100000,-0.100000)"
fill="#000000" stroke="none">
<path d="M868 1835 c-1 -1 -23 -5 -48 -8 -164 -21 -376 -131 -490 -253 -73
-78 -156 -198 -159 -227 0 -4 -7 -20 -15 -35 -16 -30 -38 -87 -38 -99 0 -4 -5
-19 -10 -33 -5 -13 -12 -42 -15 -63 -5 -39 -10 -68 -13 -77 -3 -8 1 -110 5
-165 7 -78 12 -108 25 -140 6 -16 10 -30 9 -30 -4 0 23 -80 31 -90 4 -5 11
-21 15 -34 5 -18 4 -22 -5 -16 -9 6 -11 4 -6 -4 5 -7 11 -10 14 -7 7 8 52 -66
46 -76 -3 -5 -1 -8 4 -8 12 0 98 -112 94 -123 -1 -5 2 -6 6 -3 10 6 40 -23 41
-39 1 -5 6 -11 11 -11 6 -1 15 -2 21 -3 5 0 7 -5 4 -11 -3 -5 0 -10 8 -10 7 0
22 -8 33 -18 26 -24 81 -58 126 -78 21 -9 36 -19 33 -23 -2 -4 6 -7 18 -7 14
1 21 -4 19 -13 -3 -12 0 -12 11 -2 12 9 18 9 28 -1 8 -7 23 -13 34 -12 11 0
29 -7 39 -15 13 -11 17 -12 12 -3 -7 11 -4 12 12 3 11 -6 36 -11 56 -11 19 0
38 -5 41 -10 5 -8 11 -8 19 -1 7 6 16 8 19 4 8 -8 117 -10 117 -3 0 3 9 6 20
6 11 0 20 -5 20 -11 0 -5 4 -4 9 4 8 12 12 13 26 1 13 -11 16 -11 13 0 -2 8 7
14 22 16 14 2 50 11 80 20 30 9 63 17 72 17 9 1 14 5 12 9 -3 4 1 8 9 8 14 0
95 38 107 50 17 17 76 53 87 53 7 0 11 2 9 5 -5 4 31 42 39 42 9 0 75 73 122
135 25 33 63 95 83 138 20 42 40 74 45 70 4 -5 5 -2 1 5 -4 7 0 34 8 60 9 26
18 64 21 85 3 20 8 54 11 75 7 46 8 147 2 158 -3 5 -6 26 -7 47 -1 22 -8 64
-16 95 -103 395 -426 653 -832 667 -61 2 -113 2 -115 0z"/>
</g>
</svg>
